<svg xmlns="http://www.w3.org/2000/svg" xmlns:xlink="http://www.w3.org/1999/xlink" width="500" zoomAndPan="magnify" viewBox="0 0 375 374.999991" height="500" preserveAspectRatio="xMidYMid meet" version="1.0"><defs><clipPath id="06d368b0b3"><path d="M 37.5 16.339844 L 337.5 16.339844 L 337.5 358.339844 L 37.5 358.339844 Z M 37.5 16.339844 " clip-rule="nonzero"/></clipPath><clipPath id="bf2355e17f"><path d="M 0.5 0.558594 L 300.5 0.558594 L 300.5 342.339844 L 0.5 342.339844 Z M 0.5 0.558594 " clip-rule="nonzero"/></clipPath><clipPath id="08ba75bb90"><rect x="0" width="301" y="0" height="343"/></clipPath></defs><g clip-path="url(#06d368b0b3)"><g transform="matrix(1, 0, 0, 1, 37, 16)"><g clip-path="url(#08ba75bb90)"><path fill="#cae8ff" d="M 53.257812 115.304688 C 53.867188 114.1875 54.664062 113.085938 56.328125 112.246094 L 80.082031 98.523438 C 80.410156 98.335938 80.761719 98.195312 81.136719 98.097656 C 81.253906 98.070312 81.371094 98.070312 81.5 98.050781 C 81.746094 98.007812 81.992188 97.964844 82.238281 97.96875 L 82.285156 97.964844 L 82.285156 97.976562 C 82.988281 97.988281 83.679688 98.179688 84.289062 98.527344 L 137.738281 129.390625 L 137.785156 129.296875 L 142.097656 131.792969 C 147.300781 134.792969 153.699219 134.792969 158.902344 131.792969 L 182.269531 118.304688 C 183.5625 117.554688 184.363281 116.167969 184.363281 114.664062 C 184.363281 113.164062 183.5625 111.777344 182.269531 111.023438 L 158.902344 97.546875 C 153.699219 94.542969 147.300781 94.542969 142.097656 97.546875 L 136.472656 100.792969 C 135.171875 101.539062 133.578125 101.539062 132.277344 100.792969 L 110.515625 88.230469 C 109.214844 87.480469 108.417969 86.09375 108.417969 84.59375 C 108.417969 83.09375 109.214844 81.707031 110.515625 80.957031 L 142.097656 62.71875 C 147.300781 59.71875 153.699219 59.71875 158.902344 62.71875 L 236.273438 107.390625 C 241.871094 110.625 241.871094 118.703125 236.273438 121.9375 L 158.902344 166.609375 C 153.699219 169.609375 147.300781 169.609375 142.097656 166.609375 L 82.285156 132.074219 L 82.285156 210.742188 L 101.503906 221.875 L 142.097656 245.382812 C 143.386719 246.121094 144.757812 246.683594 146.1875 247.070312 C 150.476562 248.207031 155.046875 247.597656 158.902344 245.382812 L 214.519531 213.273438 C 217.121094 211.773438 218.71875 208.996094 218.71875 205.996094 L 218.71875 160.140625 C 218.71875 158.640625 219.523438 157.246094 220.820312 156.507812 L 242.574219 143.933594 C 243.875 143.183594 245.476562 143.183594 246.777344 143.933594 C 248.074219 144.683594 248.875 146.078125 248.875 147.578125 L 248.875 223.410156 C 248.875 226.410156 247.273438 229.175781 244.675781 230.6875 L 158.902344 280.210938 C 156.382812 281.664062 153.523438 282.425781 150.617188 282.449219 L 150.558594 282.449219 C 150.148438 282.449219 149.738281 282.402344 149.328125 282.378906 C 149.011719 282.355469 148.695312 282.355469 148.378906 282.320312 C 147.945312 282.261719 147.511719 282.15625 147.089844 282.074219 C 146.796875 282.003906 146.503906 281.96875 146.222656 281.898438 C 145.753906 281.78125 145.308594 281.605469 144.863281 281.441406 C 144.605469 281.347656 144.359375 281.289062 144.125 281.195312 C 143.433594 280.914062 142.753906 280.585938 142.109375 280.210938 L 68.105469 237.484375 L 56.375 230.828125 C 53.75 229.339844 52.121094 226.550781 52.121094 223.527344 L 52.121094 119.511719 C 52.121094 118.011719 52.53125 116.566406 53.257812 115.304688 " fill-opacity="1" fill-rule="nonzero"/><g clip-path="url(#bf2355e17f)"><path fill="#233dff" d="M 142.308594 37.597656 C 144.804688 36.160156 147.617188 35.390625 150.5 35.363281 C 153.371094 35.390625 156.195312 36.160156 158.691406 37.597656 L 262.046875 97.269531 C 267.230469 100.265625 270.421875 105.796875 270.425781 111.78125 L 270.425781 231.136719 C 270.425781 237.125 267.234375 242.65625 262.046875 245.644531 L 158.691406 305.316406 C 156.160156 306.78125 153.300781 307.554688 150.382812 307.566406 C 147.464844 307.554688 144.59375 306.78125 142.0625 305.328125 L 39.160156 245.914062 C 33.980469 242.925781 30.78125 237.394531 30.78125 231.40625 L 30.78125 196.917969 C 30.792969 195.417969 29.984375 194.035156 28.695312 193.285156 L 6.78125 180.640625 C 5.492188 179.890625 3.886719 179.890625 2.597656 180.640625 C 1.296875 181.390625 0.5 182.773438 0.5 184.273438 L 0.5 248.503906 C 0.511719 251.246094 1.191406 253.941406 2.480469 256.355469 C 2.808594 257.9375 4.53125 259.800781 6.96875 261.710938 C 7.015625 261.757812 7.085938 261.804688 7.144531 261.851562 C 13.332031 266.667969 23.574219 271.636719 25.390625 272.691406 L 142.0625 340.050781 C 144.675781 341.550781 147.652344 342.324219 150.664062 342.289062 L 150.792969 342.289062 L 150.792969 342.277344 C 153.570312 342.207031 156.289062 341.433594 158.691406 340.050781 L 292.121094 263.011719 C 297.304688 260.023438 300.5 254.492188 300.5 248.503906 L 300.5 94.425781 C 300.5 91.734375 300.160156 88.996094 298.976562 86.675781 C 298.816406 86.074219 297.199219 83.113281 293.867188 80.679688 C 292.609375 79.832031 290.390625 78.695312 288.3125 77.492188 L 159.066406 2.875 C 156.464844 1.375 153.5 0.605469 150.5 0.640625 C 147.488281 0.605469 144.535156 1.375 141.933594 2.875 L 22.671875 71.722656 C 22.402344 71.890625 22.191406 72.085938 21.957031 72.277344 L 20.445312 73.140625 C 16.390625 75.292969 10.039062 78.566406 6.59375 81.183594 L 6.3125 81.394531 C 6.265625 81.429688 6.21875 81.464844 6.171875 81.496094 C 6.054688 81.597656 5.972656 81.699219 5.855469 81.804688 C 4.589844 82.863281 3.511719 84.105469 2.679688 85.496094 C 2.65625 85.511719 2.644531 85.539062 2.621094 85.558594 L 2.632812 85.5625 C 1.238281 87.890625 0.5 90.550781 0.5 93.261719 L 0.5 149.679688 C 0.5 151.179688 1.296875 152.5625 2.597656 153.3125 L 24.511719 165.96875 C 25.800781 166.707031 27.40625 166.707031 28.695312 165.96875 C 29.996094 165.21875 30.792969 163.835938 30.792969 162.335938 L 30.792969 111.457031 C 30.792969 105.464844 33.992188 99.925781 39.183594 96.9375 L 142.308594 37.597656 L 142.308594 37.601562 Z M 142.308594 37.597656 " fill-opacity="1" fill-rule="nonzero"/></g></g></g></g></svg>